<?xml version="1.0" encoding="iso-8859-1"?>
<!-- Generator: Adobe Illustrator 19.1.0, SVG Export Plug-In . SVG Version: 6.00 Build 0)  -->
<svg version="1.1" id="Layer_1" xmlns="http://www.w3.org/2000/svg" xmlns:xlink="http://www.w3.org/1999/xlink" x="0px" y="0px"
	 width="100px" height="100px" viewBox="0 0 100 100" style="enable-background:new 0 0 100 100;" xml:space="preserve">
<style type="text/css">
	.st0{fill:#6ABD46; stroke: #FFFFFF; stroke-width: 6;}
	.st1{fill:#FFFFFF;}
</style>
<polyline style="fill:none;stroke:#898989;stroke-width:2;stroke-miterlimit:10;" points="4.734,34.349 36.05,19.26 64.876,36.751 
	96.308,6.946 "/>
<circle style="fill:#898989;" cx="4.885" cy="33.929" r="4.885"/>
<circle style="fill:#898989;" cx="35.95" cy="19.545" r="4.885"/>
<circle style="fill:#898989;" cx="65.047" cy="36.046" r="4.885"/>
<circle style="fill:#898989;" cx="94.955" cy="7.135" r="4.885"/>
<g>
	<linearGradient id="SVGID_1_" gradientUnits="userSpaceOnUse" x1="5" y1="103.7019" x2="5" y2="32.0424">
		<stop  offset="0" style="stop-color:#FFF33B"/>
		<stop  offset="0" style="stop-color:#FFD53F"/>
		<stop  offset="0" style="stop-color:#FBBC40"/>
		<stop  offset="0" style="stop-color:#F7A840"/>
		<stop  offset="0" style="stop-color:#F59B40"/>
		<stop  offset="0" style="stop-color:#F3933F"/>
		<stop  offset="0" style="stop-color:#F3903F"/>
		<stop  offset="0.8423" style="stop-color:#ED683C"/>
		<stop  offset="1" style="stop-color:#E93E3A"/>
	</linearGradient>
	<path style="fill:url(#SVGID_1_);" d="M9.001,48.173H0.999C0.447,48.173,0,48.62,0,49.172V100h10V49.172
		C10,48.62,9.553,48.173,9.001,48.173z"/>
	<linearGradient id="SVGID_2_" gradientUnits="userSpaceOnUse" x1="5" y1="98.9423" x2="5" y2="53.1961">
		<stop  offset="0" style="stop-color:#FEBC11"/>
		<stop  offset="1" style="stop-color:#F99B1C"/>
	</linearGradient>
	<path style="fill:url(#SVGID_2_);" d="M0,69.173v30.563h10V69.173"/>
	<linearGradient id="SVGID_3_" gradientUnits="userSpaceOnUse" x1="5" y1="99.4343" x2="5" y2="74.4359">
		<stop  offset="0" style="stop-color:#FEBC11"/>
		<stop  offset="1" style="stop-color:#FFDE17"/>
	</linearGradient>
	<path style="fill:url(#SVGID_3_);" d="M0,83.166v16.701h10V83.166"/>
</g>
<g>
	<linearGradient id="SVGID_4_" gradientUnits="userSpaceOnUse" x1="20" y1="103.7019" x2="20" y2="32.0424">
		<stop  offset="0" style="stop-color:#FFF33B"/>
		<stop  offset="0" style="stop-color:#FFD53F"/>
		<stop  offset="0" style="stop-color:#FBBC40"/>
		<stop  offset="0" style="stop-color:#F7A840"/>
		<stop  offset="0" style="stop-color:#F59B40"/>
		<stop  offset="0" style="stop-color:#F3933F"/>
		<stop  offset="0" style="stop-color:#F3903F"/>
		<stop  offset="0.8423" style="stop-color:#ED683C"/>
		<stop  offset="1" style="stop-color:#E93E3A"/>
	</linearGradient>
	<path style="fill:url(#SVGID_4_);" d="M24.001,40.769h-8.002c-0.552,0-0.999,0.447-0.999,0.999V100h10V41.768
		C25,41.216,24.553,40.769,24.001,40.769z"/>
	<linearGradient id="SVGID_5_" gradientUnits="userSpaceOnUse" x1="20" y1="98.9423" x2="20" y2="53.1961">
		<stop  offset="0" style="stop-color:#FEBC11"/>
		<stop  offset="1" style="stop-color:#F99B1C"/>
	</linearGradient>
	<path style="fill:url(#SVGID_5_);" d="M15,64.716v35.02h10v-35.02"/>
	<linearGradient id="SVGID_6_" gradientUnits="userSpaceOnUse" x1="20" y1="99.4343" x2="20" y2="74.4359">
		<stop  offset="0" style="stop-color:#FEBC11"/>
		<stop  offset="1" style="stop-color:#FFDE17"/>
	</linearGradient>
	<path style="fill:url(#SVGID_6_);" d="M15,80.731v19.137h10V80.731"/>
</g>
<g>
	<linearGradient id="SVGID_7_" gradientUnits="userSpaceOnUse" x1="35" y1="103.7019" x2="35" y2="32.0424">
		<stop  offset="0" style="stop-color:#FFF33B"/>
		<stop  offset="0" style="stop-color:#FFD53F"/>
		<stop  offset="0" style="stop-color:#FBBC40"/>
		<stop  offset="0" style="stop-color:#F7A840"/>
		<stop  offset="0" style="stop-color:#F59B40"/>
		<stop  offset="0" style="stop-color:#F3933F"/>
		<stop  offset="0" style="stop-color:#F3903F"/>
		<stop  offset="0.8423" style="stop-color:#ED683C"/>
		<stop  offset="1" style="stop-color:#E93E3A"/>
	</linearGradient>
	<path style="fill:url(#SVGID_7_);" d="M39.001,34.423h-8.002c-0.552,0-0.999,0.447-0.999,0.999V100h10V35.422
		C40,34.87,39.553,34.423,39.001,34.423z"/>
	<linearGradient id="SVGID_8_" gradientUnits="userSpaceOnUse" x1="35" y1="98.9423" x2="35" y2="53.1961">
		<stop  offset="0" style="stop-color:#FEBC11"/>
		<stop  offset="1" style="stop-color:#F99B1C"/>
	</linearGradient>
	<path style="fill:url(#SVGID_8_);" d="M30,60.895v38.84h10v-38.84"/>
	<linearGradient id="SVGID_9_" gradientUnits="userSpaceOnUse" x1="35" y1="99.4343" x2="35" y2="74.4359">
		<stop  offset="0" style="stop-color:#FEBC11"/>
		<stop  offset="1" style="stop-color:#FFDE17"/>
	</linearGradient>
	<path style="fill:url(#SVGID_9_);" d="M30,78.643v21.225h10V78.643"/>
</g>
<g>
	<linearGradient id="SVGID_10_" gradientUnits="userSpaceOnUse" x1="50" y1="103.7019" x2="50" y2="32.0424">
		<stop  offset="0" style="stop-color:#FFF33B"/>
		<stop  offset="0" style="stop-color:#FFD53F"/>
		<stop  offset="0" style="stop-color:#FBBC40"/>
		<stop  offset="0" style="stop-color:#F7A840"/>
		<stop  offset="0" style="stop-color:#F59B40"/>
		<stop  offset="0" style="stop-color:#F3933F"/>
		<stop  offset="0" style="stop-color:#F3903F"/>
		<stop  offset="0.8423" style="stop-color:#ED683C"/>
		<stop  offset="1" style="stop-color:#E93E3A"/>
	</linearGradient>
	<path style="fill:url(#SVGID_10_);" d="M54.001,41.827h-8.002c-0.552,0-0.999,0.447-0.999,0.999V100h10V42.826
		C55,42.274,54.553,41.827,54.001,41.827z"/>
	<linearGradient id="SVGID_11_" gradientUnits="userSpaceOnUse" x1="50" y1="98.9423" x2="50" y2="53.1961">
		<stop  offset="0" style="stop-color:#FEBC11"/>
		<stop  offset="1" style="stop-color:#F99B1C"/>
	</linearGradient>
	<path style="fill:url(#SVGID_11_);" d="M45,65.352v34.383h10V65.352"/>
	<linearGradient id="SVGID_12_" gradientUnits="userSpaceOnUse" x1="50" y1="99.4343" x2="50" y2="74.4359">
		<stop  offset="0" style="stop-color:#FEBC11"/>
		<stop  offset="1" style="stop-color:#FFDE17"/>
	</linearGradient>
	<path style="fill:url(#SVGID_12_);" d="M45,81.079v18.789h10V81.079"/>
</g>
<g>
	<linearGradient id="SVGID_13_" gradientUnits="userSpaceOnUse" x1="65" y1="103.8575" x2="65" y2="29.1875">
		<stop  offset="0" style="stop-color:#FFF33B"/>
		<stop  offset="0" style="stop-color:#FFD53F"/>
		<stop  offset="0" style="stop-color:#FBBC40"/>
		<stop  offset="0" style="stop-color:#F7A840"/>
		<stop  offset="0" style="stop-color:#F59B40"/>
		<stop  offset="0" style="stop-color:#F3933F"/>
		<stop  offset="0" style="stop-color:#F3903F"/>
		<stop  offset="0.8423" style="stop-color:#ED683C"/>
		<stop  offset="1" style="stop-color:#E93E3A"/>
	</linearGradient>
	<path style="fill:url(#SVGID_13_);" d="M69.001,50.404h-8.002c-0.552,0-0.999,0.447-0.999,0.999V100h10V51.403
		C70,50.851,69.553,50.404,69.001,50.404z"/>
	<linearGradient id="SVGID_14_" gradientUnits="userSpaceOnUse" x1="65" y1="98.8979" x2="65" y2="51.2298">
		<stop  offset="0" style="stop-color:#FEBC11"/>
		<stop  offset="1" style="stop-color:#F99B1C"/>
	</linearGradient>
	<path style="fill:url(#SVGID_14_);" d="M60,70.531v29.193h10V70.531"/>
	<linearGradient id="SVGID_15_" gradientUnits="userSpaceOnUse" x1="65" y1="99.4105" x2="65" y2="73.3619">
		<stop  offset="0" style="stop-color:#FEBC11"/>
		<stop  offset="1" style="stop-color:#FFDE17"/>
	</linearGradient>
	<path style="fill:url(#SVGID_15_);" d="M60,83.909v15.953h10V83.909"/>
</g>
<g>
	<linearGradient id="SVGID_16_" gradientUnits="userSpaceOnUse" x1="80" y1="104.4108" x2="80" y2="19.0293">
		<stop  offset="0" style="stop-color:#FFF33B"/>
		<stop  offset="0" style="stop-color:#FFD53F"/>
		<stop  offset="0" style="stop-color:#FBBC40"/>
		<stop  offset="0" style="stop-color:#F7A840"/>
		<stop  offset="0" style="stop-color:#F59B40"/>
		<stop  offset="0" style="stop-color:#F3933F"/>
		<stop  offset="0" style="stop-color:#F3903F"/>
		<stop  offset="0.8423" style="stop-color:#ED683C"/>
		<stop  offset="1" style="stop-color:#E93E3A"/>
	</linearGradient>
	<path style="fill:url(#SVGID_16_);" d="M84.001,40.769h-8.002c-0.552,0-0.999,0.447-0.999,0.999V100h10V41.768
		C85,41.216,84.553,40.769,84.001,40.769z"/>
	<linearGradient id="SVGID_17_" gradientUnits="userSpaceOnUse" x1="80" y1="98.9423" x2="80" y2="53.1961">
		<stop  offset="0" style="stop-color:#FEBC11"/>
		<stop  offset="1" style="stop-color:#F99B1C"/>
	</linearGradient>
	<path style="fill:url(#SVGID_17_);" d="M75,64.716v35.02h10v-35.02"/>
	<linearGradient id="SVGID_18_" gradientUnits="userSpaceOnUse" x1="80" y1="99.4343" x2="80" y2="74.4359">
		<stop  offset="0" style="stop-color:#FEBC11"/>
		<stop  offset="1" style="stop-color:#FFDE17"/>
	</linearGradient>
	<path style="fill:url(#SVGID_18_);" d="M75,80.731v19.137h10V80.731"/>
</g>
<g>
	<linearGradient id="SVGID_19_" gradientUnits="userSpaceOnUse" x1="95" y1="103.5838" x2="95" y2="34.2115">
		<stop  offset="0" style="stop-color:#FFF33B"/>
		<stop  offset="0" style="stop-color:#FFD53F"/>
		<stop  offset="0" style="stop-color:#FBBC40"/>
		<stop  offset="0" style="stop-color:#F7A840"/>
		<stop  offset="0" style="stop-color:#F59B40"/>
		<stop  offset="0" style="stop-color:#F3933F"/>
		<stop  offset="0" style="stop-color:#F3903F"/>
		<stop  offset="0.8423" style="stop-color:#ED683C"/>
		<stop  offset="1" style="stop-color:#E93E3A"/>
	</linearGradient>
	<path style="fill:url(#SVGID_19_);" d="M99.001,21.157h-8.002c-0.552,0-0.999,0.447-0.999,0.999V100h10V22.156
		C100,21.604,99.553,21.157,99.001,21.157z"/>
	<linearGradient id="SVGID_20_" gradientUnits="userSpaceOnUse" x1="95" y1="98.9761" x2="95" y2="54.69">
		<stop  offset="0" style="stop-color:#FEBC11"/>
		<stop  offset="1" style="stop-color:#F99B1C"/>
	</linearGradient>
	<path style="fill:url(#SVGID_20_);" d="M90,52.898v46.846h10V52.898"/>
	<linearGradient id="SVGID_21_" gradientUnits="userSpaceOnUse" x1="95" y1="99.4524" x2="95" y2="75.2518">
		<stop  offset="0" style="stop-color:#FEBC11"/>
		<stop  offset="1" style="stop-color:#FFDE17"/>
	</linearGradient>
	<path style="fill:url(#SVGID_21_);" d="M90,74.272v25.6h10v-25.6"/>
</g>
<g>
	<g transform="translate(25, 28) scale(0.65, 0.65)">
		<path class="st0" d="M129.7,81.4c0,29.8-24.2,54-54,54c-29.8,0-54-24.2-54-54c0-29.8,24.2-54,54-54
			C105.5,27.4,129.7,51.6,129.7,81.4z"/>
		<path class="st1" d="M122,71.4c-2.6,2.1-4.7,5.7-7.1,11.4c-3,7.3-5.5,9.5-7.6,10.6c-1.4-1.1-3.9-4.2-5.4-6.2
			c-2-2.6-3.9-5-5.6-6.4c-3.1-2.5-6.4-2.7-9.1-2.9c-1.5-0.1-2.8-0.2-3.7-0.7c-2.2-1.2-2.9-3.2-4.9-10.5c-1.2-4.3-3-7.1-5.7-8.5
			c-3.4-1.8-7.3-0.8-10.6,0.4c-4.3,1.6-8.9,9.1-15.9,21.4c-2.1,3.6-4.8,8.4-6.2,10.3c-2.7-1.6-8.4-8.5-10.9-13.4
			c-0.2,1.6-0.3,3.3-0.3,4.9c0,3.1,0.3,6.1,0.9,9.1c3,3.4,6.3,6.3,9.2,7c2,0.5,3.9,0.1,5.4-1.2c2-1.7,4.4-5.8,8.5-13
			c3.4-5.9,9.6-16.8,11.9-18c2.9-1.1,4.1-1,4.5-0.8c0.2,0.1,1.1,0.8,1.9,3.8c2,7.5,3.3,12.4,8.6,15.3c2.4,1.3,4.7,1.4,6.8,1.5
			c2.3,0.1,3.6,0.3,4.8,1.2c1.1,0.9,2.9,3.2,4.5,5.2c3.9,5,7.4,9.4,11.2,9.4c0.6,0,1.3-0.1,2-0.4c4-1.6,8.3-4.5,12.7-15.1
			c0.4-1.1,0.8-2,1.2-2.8c0-0.4,0.1-0.8,0.1-1.2C123.2,78.2,122.8,74.8,122,71.4z"/>
	</g>
</g>
</svg>
